<?xml version="1.0" encoding="utf-8" ?><svg xmlns="http://www.w3.org/2000/svg" xmlns:xlink="http://www.w3.org/1999/xlink" width="968" height="1118" viewBox="0 0 968 1118"><path fill="#8934FB" d="M163.08 959.724C161.157 956.985 159.518 952.035 159.508 948.644C159.418 918.952 159.468 889.17 159.476 859.484L159.625 685.998L159.868 578.033L159.864 544.359C159.86 534.96 158.134 519.093 165.379 511.989C169.915 507.541 181.74 508.047 187.997 507.996C202.584 507.878 217.246 508.227 231.868 508.243L350.326 508.157C362.64 508.232 373.251 505.076 378.261 518.994C380.04 522.949 379.257 541.746 379.252 546.952L379.438 584.185L379.476 708.115C379.476 711.721 379.335 715.434 379.47 719.029C380.361 742.806 373.716 756.662 395.867 772.008C426.68 772.887 458.965 772.463 489.865 772.468L645.966 772.531L702.484 772.764C715.668 772.777 729.342 772.421 742.438 773.201C748.691 773.573 756.254 785.107 756.542 791.045C756.976 799.995 756.823 808.782 756.841 817.724C757.008 834.077 757.078 850.431 757.052 866.785L757.066 920.713C757.067 929.498 757.261 939.124 756.88 947.811C756.581 954.613 749.278 964.763 744.039 968.925C742.24 970.355 738.517 973.084 736.164 973.284C729.175 975.758 702.547 974.921 693.553 974.997L594.367 975.563L334.177 975.667L248.131 975.454C233.841 975.432 186.244 977.361 175.714 970.96C170.621 969.411 165.962 963.993 163.08 959.724Z"/><path fill="#6B1ADC" d="M182.339 970.073C196.362 971.22 215.865 970.533 230.17 970.629L330.668 970.696L617.745 971.008L704.424 970.642C709.224 970.652 725.669 970.075 728.999 970.918C724.215 972.242 681.964 971.149 674.129 971.149L510.797 971.295L345.74 971.97C329.969 972.026 314.198 971.978 298.428 971.825C290.186 971.798 282.911 972.285 274.626 971.627C277.183 972.946 278.097 972.835 280.791 972.792C303.644 972.431 326.452 972.159 349.322 972.215L562.571 972.247C575.214 972.271 588.496 972.477 601.125 972.777C605.831 972.888 625.832 972.258 629.233 973.029C628.803 974.039 629.093 973.563 627.934 974.264C630.394 974.328 633.369 973.323 635.284 973.469C652.875 974.817 671.459 974.863 689.151 974.246C700.648 973.828 712.151 973.58 723.656 973.504C726.436 973.461 733.952 972.988 736.164 973.284C729.175 975.758 702.547 974.921 693.553 974.997L594.367 975.563L334.177 975.667L248.131 975.454C233.841 975.432 186.244 977.361 175.714 970.96C176.736 970.643 181.039 970.222 182.339 970.073Z"/><path fill="#6B1ADC" d="M163.08 959.724C161.157 956.985 159.518 952.035 159.508 948.644C159.418 918.952 159.468 889.17 159.476 859.484L159.625 685.998L159.868 578.033L159.864 544.359C159.86 534.96 158.134 519.093 165.379 511.989C169.915 507.541 181.74 508.047 187.997 507.996C202.584 507.878 217.246 508.227 231.868 508.243L350.326 508.157C362.64 508.232 373.251 505.076 378.261 518.994C377.336 522.729 377.302 535.911 376.735 541.001C376.183 535.317 376.545 526.758 376.171 520.347C365.62 509.28 367.232 510.437 351.633 510.428L237.716 510.433L198.807 510.505C192.362 510.531 173.033 509.6 167.776 513.351C162.032 517.45 162.771 531.002 162.789 537.724L163.199 878.624C163.23 889.054 161.893 947.891 163.534 952.327C164.014 953.625 164.475 954.925 164.974 956.216L164.726 956.707L163.333 956.505C163.007 958.025 162.903 958.133 163.08 959.724Z"/><path fill="#651CCB" d="M378.261 518.994C380.04 522.949 379.257 541.746 379.252 546.952L379.438 584.185L379.476 708.115C379.476 711.721 379.335 715.434 379.47 719.029C380.361 742.806 373.716 756.662 395.867 772.008C389.748 772.941 382.87 760.492 380.222 756.321C379.135 756.616 379.673 756.605 378.611 756.384C378.738 758.773 379.813 760.991 380.696 763.262C380.117 759.804 376.196 755.866 376.177 752.49C376.136 745.261 376.383 738.004 376.413 730.766L376.43 682.056C376.428 635.287 375.815 587.631 376.735 541.001C377.302 535.911 377.336 522.729 378.261 518.994Z"/><path fill="#651CCB" d="M163.08 959.724C162.903 958.133 163.007 958.025 163.333 956.505C164.35 959.108 167.632 965.402 170.181 965.81C177.3 966.948 176.07 965.708 182.339 970.073C181.039 970.222 176.736 970.643 175.714 970.96C170.621 969.411 165.962 963.993 163.08 959.724Z"/><path fill="#FEDF02" d="M357.539 257.649C359.245 255.102 370.945 243.517 373.678 240.741L418.827 195.485C455.401 158.781 490.823 120.321 528.369 84.4319C530.68 82.2225 535.428 78.1985 538.409 77.6254C543.827 76.584 555.102 75.803 559.612 79.4417C572.382 89.7445 585.144 104.044 596.633 115.822L678.318 200.332L732.786 255.606C736.865 259.811 749.881 272.39 752.878 276.132C761.542 283.038 772.012 294.709 779.856 302.714C790.642 313.723 777.212 334.027 763.143 333.081C750.333 333.015 737.708 333.104 725.033 333.058L659.004 333.118C658.072 339.541 658.531 350.693 658.538 357.559L658.504 400.804C658.445 469.27 658.313 537.84 658.651 606.308C658.665 609.202 658.55 612.529 658.351 615.408C658.663 619.319 658.491 626.861 658.525 631.018L658.715 662.038C658.72 670.554 658.68 679.129 658.521 687.628C658.295 693.569 658.416 700.521 656.824 706.216C655.658 710.388 649.295 718.065 644.82 718.248C638.361 718.511 631.606 718.429 625.15 718.429L584.354 718.439L457.231 718.767C448.278 718.741 437.171 715.839 436.929 704.864C436.596 689.731 436.845 674.49 436.846 659.34L436.843 565.842L436.622 424.127C436.482 394.28 435.883 363.196 436.289 333.455C433.624 332.504 416.825 332.78 413.091 332.772L366.139 332.754C349.011 332.816 299.444 337.846 316.179 302.01C317.499 299.183 325.3 290.732 327.873 288.222C337.623 278.717 347.135 266.292 357.539 257.649Z"/></svg>