<svg width="2731" height="2731" viewBox="0 0 2731 2731" fill="none" xmlns="http://www.w3.org/2000/svg">
<path d="M1308 43.9998C1102.27 53.8665 909.067 107.6 732.267 204.133C438.533 364.667 215.867 630.933 110.133 948.133C74.1333 1056.27 53.7333 1162.4 45.0667 1286.67C43.0667 1316.8 43.0667 1413.87 45.0667 1444C51.4667 1534.8 62.8 1608.53 82.6667 1688C134.933 1896 234.667 2083.47 381.067 2248.67C402.667 2272.93 463.333 2333.2 488 2354.8C653.333 2499.6 840.133 2597.87 1047.33 2649.2C1298.4 2711.2 1569.47 2697.73 1810 2611.07C1972.93 2552.4 2116.13 2466.93 2248.67 2349.6C2272.93 2328 2333.2 2267.33 2354.8 2242.67C2499.07 2077.87 2596.53 1893.2 2648.53 1685.73C2697.07 1492.27 2700.4 1281.33 2657.87 1085.07C2609.47 861.333 2505.07 656.933 2349.6 482C2329.73 459.733 2270.93 400.933 2248.67 381.067C2117.2 264.267 1970.93 177.2 1809.2 119.333C1694.13 78.1332 1575.73 53.9998 1446 45.3332C1417.33 43.4665 1336.93 42.6665 1308 43.9998ZM1454.67 259.2C1502.27 263.333 1542.93 269.067 1586.93 278C1902.53 341.6 2176.93 542.4 2334.93 825.333C2462.93 1054.4 2504.93 1324 2453.2 1584C2368.67 2009.33 2039.2 2348.67 1616 2446.4C1538.13 2464.4 1468.67 2472.8 1384 2474.27C1206.13 2477.33 1037.47 2440.13 878.8 2362.53C766.267 2307.6 669.067 2238.13 580.8 2149.87C316.8 1885.6 204.133 1511.07 278 1143.33C336 855.2 509.867 599.2 758 436.667C920.933 329.867 1104.67 269.467 1303.33 257.333C1331.87 255.6 1425.87 256.8 1454.67 259.2Z" fill="#853DE4"/>
<path d="M1315.33 342.8C1084.27 353.867 865.733 442.4 689.333 596.533C669.067 614.267 626.267 656.4 607.2 677.467C482.933 814.8 399.333 979.6 362.133 1160.67C334.933 1293.47 334.933 1437.2 362.133 1570C398.133 1745.47 476.667 1903.6 595.867 2040.67C613.733 2061.33 669.333 2116.93 690 2134.8C817.733 2245.87 962.8 2321.07 1125.33 2360.53C1282.8 2398.8 1452.4 2398.4 1610.93 2359.2C1905.87 2286.53 2153.47 2085.87 2286.67 1811.6C2415.07 1547.2 2423.07 1239.87 2308.53 967.067C2246.53 819.2 2146.4 684.267 2020.8 579.067C1824.93 414.933 1572.8 330.533 1315.33 342.8ZM1404.67 579.867C1422.4 583.867 1438.27 589.6 1454.27 598C1497.73 620.533 1530.8 659.2 1547.07 706.133C1554.8 728.667 1556.67 740.133 1556.67 768C1556.67 795.867 1554.93 807.2 1547.07 830C1524.53 895.067 1470.4 942.4 1401.33 956.933C1385.07 960.4 1345.33 960.267 1328.67 956.8C1303.73 951.6 1278.67 941.067 1257.33 926.8C1242.93 917.333 1222.27 897.333 1211.33 882.667C1195.47 861.467 1182.27 831.867 1176.53 804.667C1173.07 788 1172.93 748.267 1176.4 732C1184.13 694.667 1201.07 662.133 1226.67 635.6C1256.53 604.4 1293.33 585.067 1336.67 577.867C1352.13 575.333 1389.07 576.4 1404.67 579.867ZM798 937.2C834.133 946 898.267 960.533 946.133 970.533C1279.87 1040.93 1450.4 1041.07 1781.6 971.2C1826 961.867 1841.2 958.533 1908 943.067L1963.33 930.4L1978 931.067C1989.33 931.467 1994.8 932.4 2001.6 934.933C2026.8 944.4 2044.8 962.267 2054.4 987.733C2057.47 995.733 2057.87 998.667 2057.87 1014.67C2058 1030.27 2057.6 1034 2054.8 1042.53C2048 1063.2 2031.47 1082.27 2011.6 1092C2002.8 1096.4 1993.6 1099.07 1963.33 1106.13C1806.27 1142.93 1682.53 1167.07 1590.4 1178.93L1556 1183.33V1214.67C1556 1231.87 1556.67 1267.33 1557.33 1293.33C1563.6 1516.93 1579.73 1665.87 1611.2 1789.87C1626.13 1848.27 1638 1883.47 1673.47 1973.6C1682.8 1997.6 1691.6 2020.93 1692.8 2025.6C1696.27 2038.13 1695.87 2059.2 1692.13 2072.53C1687.33 2089.73 1679.6 2103.07 1667.33 2115.33C1655.2 2127.47 1644 2134.53 1628.67 2139.6C1619.2 2142.8 1615.87 2143.2 1599.33 2143.2C1581.73 2143.33 1580 2143.07 1568.93 2139.07C1562.53 2136.8 1553.87 2132.93 1549.73 2130.53C1538.13 2123.6 1521.6 2106.53 1515.6 2095.07C1506 2076.8 1462 1961.87 1447.6 1918C1423.73 1845.2 1404.27 1759.6 1393.33 1680.67C1390.8 1661.87 1394.4 1664 1365.33 1664C1336.27 1664 1339.87 1661.87 1337.33 1680.67C1326.53 1758.67 1306.67 1846.13 1283.07 1918C1268.67 1962 1224.53 2076.8 1215.07 2095.07C1208.93 2106.93 1192.4 2123.87 1180 2131.07C1175.2 2133.87 1166.53 2137.73 1160.67 2139.6C1151.2 2142.8 1147.87 2143.2 1131.33 2143.2C1113.73 2143.33 1112 2143.07 1100.93 2139.07C1087.6 2134.4 1077.47 2128.53 1068 2120.27C1054.13 2108.27 1042.67 2089.33 1037.87 2070.67C1034.8 2059.33 1034.8 2036.8 1037.6 2026C1038.8 2021.6 1047.6 1998.13 1057.07 1974C1084.53 1904.27 1093.73 1878.4 1105.47 1840C1141.33 1722.27 1160.8 1584.93 1170 1386C1172.53 1328.93 1174.67 1252.8 1174.67 1213.87V1183.07L1160.4 1181.47C1090.67 1173.73 975.867 1152.93 858.133 1126.67C751.733 1103.07 730.933 1097.87 718.933 1091.87C699.467 1082.4 683.733 1064.53 676.267 1043.73C671.733 1030.93 670.667 1008.8 673.867 995.867C681.867 964.8 704.933 941.333 736 932.667C749.067 929.067 771.2 930.8 798 937.2Z" fill="#853DE4"/>
</svg>
